<svg xmlns="http://www.w3.org/2000/svg" viewBox="0 0 359.13 82.5"><defs><style>.cls-1{fill:#fff;}.cls-2{fill:#e93d44;}</style></defs><title>wizeline_secondary_logo</title><g id="Layer_2" data-name="Layer 2"><g id="LOGO_ART" data-name="LOGO ART"><path class="cls-1" d="M40.14,82.5H29.48L25,37,19.94,82.5H9.42L0,0H12.39l4,52L21.18,0h9.54l4.09,52L39.52,0H51Z"/><path class="cls-1" d="M68.63,82.5V0H81.39V82.5Z"/><path class="cls-1" d="M114,70.36h14.74V82.5H100V78.17l15.49-66H100.84V0h28.62V4.34Z"/><path class="cls-1" d="M148.54,82.5V0h26.75V11.89h-14V34.44h9.3V45.71h-9.3V70.24h14V82.5Z"/><path class="cls-2" d="M196.35,82.5V0h8.92V74H222V82.5Z"/><path class="cls-2" d="M243.18,82.5V0h9V82.5Z"/><path class="cls-2" d="M302.52,82.5l-14-41.74-4-13.26v55h-8.42V0h8.05l12.76,42.37,3.72,13.38V0h8.42V82.5Z"/><path class="cls-2" d="M332.87,82.5V0h26.26V8.3H341.79V35.8H354.3v8.05H341.79V74.2h17.34v8.3Z"/></g></g></svg>