<?xml version="1.0" encoding="utf-8"?>
<!-- Generator: Adobe Illustrator 23.1.1, SVG Export Plug-In . SVG Version: 6.00 Build 0)  -->
<svg version="1.0" id="Layer_1" xmlns="http://www.w3.org/2000/svg" xmlns:xlink="http://www.w3.org/1999/xlink" x="0px" y="0px"
	 viewBox="0 0 97.09 97.27" style="enable-background:new 0 0 97.09 97.27;" xml:space="preserve">
<title>Asset 10wizeline</title>
<g>
	<g id="LOGO_ART">
		<path class="st0" d="M48.54,0C21.68-0.05-0.14,21.69-0.19,48.55S21.5,97.23,48.36,97.28c26.86,0.05,48.68-21.69,48.73-48.55
			c0-0.03,0-0.07,0-0.1C97.12,21.8,75.39,0.03,48.56,0C48.55,0,48.55,0,48.54,0z M48.54,7.22C70.32,7.27,88.33,24.17,89.77,45.9
			H69.24L59.16,26.24c-0.91-1.78-3.08-2.48-4.86-1.57c-0.73,0.37-1.32,0.99-1.65,1.74l-15.74,35l-7.86-13.88
			c-0.64-1.13-1.84-1.83-3.14-1.83H7.33C8.87,24.06,26.85,7.28,48.54,7.22z M48.54,90.04C27.36,90,9.63,73.98,7.44,52.92h16.37
			l10.33,18.24C34.78,72.3,35.99,73,37.29,73h0.16c1.36-0.06,2.57-0.89,3.13-2.13l15.58-34.65l7.66,15c0.61,1.22,1.86,1.99,3.22,2
			l0,0h22.58C87.27,74.14,69.59,89.96,48.54,90V90.04z"/>
	</g>
</g>
</svg>
